<svg id="Layer_1" data-name="Layer 1" xmlns="http://www.w3.org/2000/svg" xmlns:xlink="http://www.w3.org/1999/xlink" viewBox="0 0 118 135"><defs><style>.cls-1{fill:url(#linear-gradient);}.cls-2{fill:url(#linear-gradient-2);}.cls-3{fill:url(#linear-gradient-3);}.cls-4{fill:url(#linear-gradient-4);}.cls-5{fill:url(#linear-gradient-5);}.cls-6{fill:none;}</style><linearGradient id="linear-gradient" x1="13.5" y1="74.5" x2="35.5" y2="74.5" gradientUnits="userSpaceOnUse"><stop offset="0.01" stop-color="#0156a3"/><stop offset="0.24" stop-color="#014190"/><stop offset="0.74" stop-color="#02176b"/><stop offset="1" stop-color="#02075d"/></linearGradient><linearGradient id="linear-gradient-2" x1="92.99" y1="278" x2="109" y2="278" xlink:href="#linear-gradient"/><linearGradient id="linear-gradient-3" x1="78.5" y1="74.5" x2="101.5" y2="74.5" gradientUnits="userSpaceOnUse"><stop offset="0" stop-color="#02075d"/><stop offset="0.39" stop-color="#02095f"/><stop offset="0.56" stop-color="#021065"/><stop offset="0.69" stop-color="#021d70"/><stop offset="0.79" stop-color="#012e80"/><stop offset="0.88" stop-color="#014695"/><stop offset="0.96" stop-color="#0062ae"/><stop offset="1" stop-color="#0071bc"/></linearGradient><linearGradient id="linear-gradient-4" x1="35.5" y1="77" x2="78.5" y2="77" gradientUnits="userSpaceOnUse"><stop offset="0.01" stop-color="#0156a3"/><stop offset="0.47" stop-color="#0158a3"/><stop offset="0.64" stop-color="#015fa2"/><stop offset="0.76" stop-color="#016aa2"/><stop offset="0.85" stop-color="#017ba0"/><stop offset="0.93" stop-color="#00919f"/><stop offset="1" stop-color="#00a99d"/></linearGradient><linearGradient id="linear-gradient-5" x1="155" y1="217.5" x2="183" y2="217.5" xlink:href="#linear-gradient-4"/></defs><path class="cls-1" d="M25.77,26.5h7.84a1.89,1.89,0,0,1,1.89,1.89v92.22a1.89,1.89,0,0,1-1.89,1.89h0A20.11,20.11,0,0,1,13.5,102.39V38.77A12.27,12.27,0,0,1,25.77,26.5Z"/><path class="cls-2" d="M107.11,320h0C96,320,93,313.11,93,302V251c0-6.78-.51-15,6.27-15h7.84a1.89,1.89,0,0,1,1.89,1.89v80.22A1.89,1.89,0,0,1,107.11,320Z" transform="translate(-76 -202)"/><path class="cls-3" d="M79,26.5H90.66A10.84,10.84,0,0,1,101.5,37.34V100A22.5,22.5,0,0,1,79,122.5h0a.5.5,0,0,1-.5-.5V27a.5.5,0,0,1,.5-.5Z"/><path class="cls-4" d="M52.5,68.5h26a0,0,0,0,1,0,0v0a17,17,0,0,1-17,17h-26a0,0,0,0,1,0,0v0A17,17,0,0,1,52.5,68.5Z"/><path class="cls-5" d="M166.11,226l-.22,0L155,224h0c0-9.31,10.43-11,19.76-11a1,1,0,0,0,.45-.11L183,209h0A17,17,0,0,1,166.11,226Z" transform="translate(-76 -202)"/><rect class="cls-6" x="17" width="87" height="2"/><rect class="cls-6" y="14" width="4" height="107"/><rect class="cls-6" y="130" width="106" height="5"/><rect class="cls-6" x="112" y="17" width="6" height="113"/></svg>